<svg xmlns="http://www.w3.org/2000/svg" viewBox="0 0 32 32" fill="none">
  <rect width="32" height="32" rx="6" fill="#FAF6EF"/>
  <!-- Sage steam wisps  bold strokes -->
  <path d="M10.5 7C9.5 5.5 10 3.5 12 3C13 2.5 13 4.5 12.5 5.5" stroke="#6B8F71" stroke-width="2" stroke-linecap="round" fill="none"/>
  <path d="M15.5 6.5C14.5 5 15 3 17 2.5C18 2 18 4 17.5 5" stroke="#6B8F71" stroke-width="2" stroke-linecap="round" fill="none"/>
  <path d="M20.5 7C19.5 5.5 20 3.5 22 3C23 2.5 23 4.5 22.5 5.5" stroke="#6B8F71" stroke-width="2" stroke-linecap="round" fill="none"/>
  <!-- Bold solid B -->
  <path d="M9.5 8.5H14.5C17.8 8.5 20 10.2 20 12.8C20 14.5 18.8 15.8 17 16.3C19.2 16.8 20.8 18.3 20.8 20.5C20.8 23.5 18.2 25.5 14.8 25.5H9.5V8.5ZM13 12.2V14.8H14.8C15.8 14.8 16.5 14.2 16.5 13.5C16.5 12.8 15.8 12.2 14.8 12.2H13ZM13 18.5V22H15.2C16.5 22 17.5 21.2 17.5 20.2C17.5 19.2 16.5 18.5 15.2 18.5H13Z" fill="#C4704B" fill-rule="evenodd"/>
</svg>
